<?xml version="1.0" encoding="UTF-8" standalone="no"?><!DOCTYPE svg PUBLIC "-//W3C//DTD SVG 1.1//EN" "http://www.w3.org/Graphics/SVG/1.1/DTD/svg11.dtd"><svg width="180px" height="240px" version="1.1" xmlns="http://www.w3.org/2000/svg" xmlns:xlink="http://www.w3.org/1999/xlink" xml:space="preserve" xmlns:serif="http://www.serif.com/" style="fill-rule:evenodd;clip-rule:evenodd;stroke-linejoin:round;stroke-miterlimit:2;"><g transform="matrix(9,0,0,12,0,0)"><rect x="0" y="0" width="20" height="20" style="fill:none;"/></g><g transform="matrix(2,0,0,2,90,120)"><g transform="matrix(1,0,0,1,-44.15,-44.15)"><g><path d="M3.9,83.3L20.9,83.3C21.8,83.3 22.6,82.8 23.1,82.1L69.9,5.2C70.5,4.2 69.8,3 68.6,3L52.5,3C51.7,3 51,3.4 50.6,4.1L3.1,81.9C2.8,82.5 3.2,83.3 3.9,83.3Z" style="fill:rgb(62,168,255);fill-rule:nonzero;"/><path d="M62.5,82.1L84.6,46.6C85.3,45.5 84.5,44.1 83.2,44.1L67.2,44.1C66.6,44.1 66,44.4 65.7,44.9L43,81.2C42.4,82.1 43.1,83.3 44.2,83.3L60.5,83.3C61.3,83.3 62.1,82.9 62.5,82.1Z" style="fill:rgb(62,168,255);fill-rule:nonzero;"/></g></g></g></svg>